<?xml version="1.0" standalone="no"?>

<svg version="1.0" xmlns="http://www.w3.org/2000/svg"
 width="60.000000pt" height="50.000000pt" viewBox="0 0 180.000000 180.000000"
 preserveAspectRatio="xMidYMid meet">

<g transform="translate(0.000000,180.000000) scale(0.100000,-0.100000)"
fill="#14919b" 
stroke="none">

<path d="M785 1789 c-346 -45 -645 -299 -744 -634 -123 -420 71 -862 465
-1059 385 -192 869 -71 1119 279 262 366 217 863 -106 1171 -147 139 -315 218
-519 244 -95 11 -116 11 -215 -1z m568 -210 c45 -23 83 -42 85 -44 1 -1 -21
-51 -49 -111 -28 -60 -67 -143 -86 -184 -78 -167 -92 -198 -121 -258 l-30 -64
53 -101 c258 -491 293 -562 282 -569 -7 -4 -32 -8 -56 -8 -25 0 -96 -5 -159
-12 l-114 -11 -87 43 c-85 41 -89 44 -120 106 -18 35 -36 66 -40 68 -4 3 -24
-35 -45 -84 -21 -49 -46 -102 -56 -118 l-18 -29 -159 -12 -159 -13 -87 42
c-78 38 -85 43 -77 63 7 19 85 181 284 592 l44 90 -126 245 c-69 135 -136 264
-149 288 -12 23 -23 46 -23 50 0 8 240 33 308 32 51 0 188 -74 208 -112 l16
-31 30 69 c16 38 34 73 39 79 9 9 191 30 292 34 26 1 62 -11 120 -40z"
/>

<path d="M1044 1578 l-91 -10 -43 -106 c-24 -59 -54 -129 -67 -156 l-25 -48
-14 27 c-8 15 -34 64 -58 109 -24 44 -54 101 -66 124 -21 40 -25 43 -54 38
-17 -3 -79 -8 -138 -12 -60 -4 -108 -11 -108 -17 0 -8 152 -307 248 -489 l36
-66 -34 -74 c-19 -40 -76 -161 -128 -268 -51 -107 -103 -215 -114 -240 -11
-25 -27 -58 -35 -73 l-14 -29 63 6 c35 3 97 8 138 12 l75 6 30 66 c16 37 55
123 87 190 32 68 58 129 58 135 1 22 28 -24 115 -196 48 -95 89 -174 91 -176
3 -3 287 20 292 25 4 2 -72 150 -255 499 -40 76 -73 142 -73 146 0 4 21 51 46
106 25 54 60 127 76 163 17 36 46 99 65 140 20 41 46 99 59 128 l24 52 -48 -1
c-26 -1 -88 -6 -138 -11z"

/>

</g>
</svg>
